<mxfile host="www.draw.io" modified="2020-04-01T19:24:38.196Z" agent="5.0 (Macintosh; Intel Mac OS X 10_15_1) AppleWebKit/537.36 (KHTML, like Gecko) Chrome/80.0.3987.149 Safari/537.36" etag="60RBSyqIHKSJ-GC_0pZd" version="12.9.6" type="github" pages="8">
  <diagram id="unl9QKwU0Ir1PE2C9jBq" name="01 - auth">
    <mxGraphModel dx="939" dy="462" grid="1" gridSize="10" guides="1" tooltips="1" connect="1" arrows="1" fold="1" page="1" pageScale="1" pageWidth="1920" pageHeight="1200" math="0" shadow="0">
      <root>
        <mxCell id="0" />
        <mxCell id="1" parent="0" />
        <mxCell id="DPHaUbNKXF2-yOt3HhRo-1" value="" style="strokeWidth=1;shadow=0;dashed=0;align=center;html=1;shape=mxgraph.mockup.containers.browserWindow;rSize=0;strokeColor=#666666;strokeColor2=#008cff;strokeColor3=#c4c4c4;mainText=,;recursiveResize=0;fontStyle=1" vertex="1" parent="1">
          <mxGeometry x="310" y="200" width="310" height="250" as="geometry" />
        </mxCell>
        <mxCell id="DPHaUbNKXF2-yOt3HhRo-2" value="Page 1" style="strokeWidth=1;shadow=0;dashed=0;align=center;html=1;shape=mxgraph.mockup.containers.anchor;fontSize=17;fontColor=#666666;align=left;" vertex="1" parent="DPHaUbNKXF2-yOt3HhRo-1">
          <mxGeometry x="60" y="12" width="110" height="26" as="geometry" />
        </mxCell>
        <mxCell id="DPHaUbNKXF2-yOt3HhRo-3" value="" style="strokeWidth=1;shadow=0;dashed=0;align=center;html=1;shape=mxgraph.mockup.containers.anchor;rSize=0;fontSize=17;fontColor=#666666;align=left;" vertex="1" parent="DPHaUbNKXF2-yOt3HhRo-1">
          <mxGeometry x="130" y="60" width="250" height="26" as="geometry" />
        </mxCell>
        <mxCell id="DPHaUbNKXF2-yOt3HhRo-4" value="React App" style="rounded=0;whiteSpace=wrap;html=1;fontSize=22;fillColor=#ffe6cc;strokeColor=#d79b00;fontStyle=1" vertex="1" parent="DPHaUbNKXF2-yOt3HhRo-1">
          <mxGeometry x="90" y="130" width="160" height="80" as="geometry" />
        </mxCell>
        <mxCell id="DPHaUbNKXF2-yOt3HhRo-5" value="Auth Service" style="rounded=0;whiteSpace=wrap;html=1;fillColor=#f5f5f5;strokeColor=#666666;fontColor=#333333;fontStyle=1;fontSize=19;" vertex="1" parent="1">
          <mxGeometry x="820" y="260" width="250" height="35" as="geometry" />
        </mxCell>
        <mxCell id="DPHaUbNKXF2-yOt3HhRo-6" value="" style="rounded=0;whiteSpace=wrap;html=1;fillColor=#f5f5f5;strokeColor=#666666;fontColor=#333333;fontStyle=1;fontSize=19;" vertex="1" parent="1">
          <mxGeometry x="820" y="295" width="250" height="105" as="geometry" />
        </mxCell>
        <mxCell id="DPHaUbNKXF2-yOt3HhRo-16" style="edgeStyle=orthogonalEdgeStyle;rounded=0;orthogonalLoop=1;jettySize=auto;html=1;exitX=1;exitY=0.25;exitDx=0;exitDy=0;entryX=0;entryY=0.25;entryDx=0;entryDy=0;" edge="1" parent="1" source="DPHaUbNKXF2-yOt3HhRo-7" target="DPHaUbNKXF2-yOt3HhRo-15">
          <mxGeometry relative="1" as="geometry" />
        </mxCell>
        <mxCell id="DPHaUbNKXF2-yOt3HhRo-7" value="Express App" style="rounded=0;whiteSpace=wrap;html=1;fontSize=15;" vertex="1" parent="1">
          <mxGeometry x="830" y="311.25" width="100" height="72.5" as="geometry" />
        </mxCell>
        <mxCell id="DPHaUbNKXF2-yOt3HhRo-8" value="" style="endArrow=classic;html=1;fontSize=15;" edge="1" parent="1">
          <mxGeometry width="50" height="50" relative="1" as="geometry">
            <mxPoint x="620.0000000000002" y="370" as="sourcePoint" />
            <mxPoint x="820" y="370" as="targetPoint" />
          </mxGeometry>
        </mxCell>
        <mxCell id="DPHaUbNKXF2-yOt3HhRo-9" value="{ email, password }" style="rounded=0;whiteSpace=wrap;html=1;fontSize=15;fillColor=#dae8fc;strokeColor=#6c8ebf;" vertex="1" parent="1">
          <mxGeometry x="650" y="340" width="150" height="30" as="geometry" />
        </mxCell>
        <mxCell id="DPHaUbNKXF2-yOt3HhRo-17" style="edgeStyle=orthogonalEdgeStyle;rounded=0;orthogonalLoop=1;jettySize=auto;html=1;exitX=0;exitY=0.75;exitDx=0;exitDy=0;entryX=1;entryY=0.75;entryDx=0;entryDy=0;" edge="1" parent="1" source="DPHaUbNKXF2-yOt3HhRo-15" target="DPHaUbNKXF2-yOt3HhRo-7">
          <mxGeometry relative="1" as="geometry" />
        </mxCell>
        <mxCell id="DPHaUbNKXF2-yOt3HhRo-19" style="edgeStyle=orthogonalEdgeStyle;rounded=0;orthogonalLoop=1;jettySize=auto;html=1;exitX=1;exitY=0.25;exitDx=0;exitDy=0;entryX=0;entryY=0.25;entryDx=0;entryDy=0;" edge="1" parent="1" source="DPHaUbNKXF2-yOt3HhRo-15" target="DPHaUbNKXF2-yOt3HhRo-18">
          <mxGeometry relative="1" as="geometry" />
        </mxCell>
        <mxCell id="DPHaUbNKXF2-yOt3HhRo-15" value="Mongoose" style="rounded=0;whiteSpace=wrap;html=1;fontSize=15;" vertex="1" parent="1">
          <mxGeometry x="960" y="311.25" width="100" height="72.5" as="geometry" />
        </mxCell>
        <mxCell id="DPHaUbNKXF2-yOt3HhRo-20" style="edgeStyle=orthogonalEdgeStyle;rounded=0;orthogonalLoop=1;jettySize=auto;html=1;exitX=0;exitY=0.75;exitDx=0;exitDy=0;entryX=1;entryY=0.75;entryDx=0;entryDy=0;" edge="1" parent="1" source="DPHaUbNKXF2-yOt3HhRo-18" target="DPHaUbNKXF2-yOt3HhRo-15">
          <mxGeometry relative="1" as="geometry" />
        </mxCell>
        <mxCell id="DPHaUbNKXF2-yOt3HhRo-18" value="MongoDB Instance" style="rounded=0;whiteSpace=wrap;html=1;fillColor=#f5f5f5;strokeColor=#666666;fontColor=#333333;fontStyle=1;fontSize=19;" vertex="1" parent="1">
          <mxGeometry x="1100" y="311.25" width="140" height="72.5" as="geometry" />
        </mxCell>
      </root>
    </mxGraphModel>
  </diagram>
  <diagram id="LUX8k7D1bEaKJNcARM9i" name="02 - sto">
    <mxGraphModel dx="601" dy="296" grid="1" gridSize="10" guides="1" tooltips="1" connect="1" arrows="1" fold="1" page="1" pageScale="1" pageWidth="1920" pageHeight="1200" math="0" shadow="0">
      <root>
        <mxCell id="AfpPpx0gtqGp28oXJmJQ-0" />
        <mxCell id="AfpPpx0gtqGp28oXJmJQ-1" parent="AfpPpx0gtqGp28oXJmJQ-0" />
        <mxCell id="AfpPpx0gtqGp28oXJmJQ-4" style="edgeStyle=orthogonalEdgeStyle;rounded=0;orthogonalLoop=1;jettySize=auto;html=1;exitX=0.5;exitY=1;exitDx=0;exitDy=0;" edge="1" parent="AfpPpx0gtqGp28oXJmJQ-1" source="AfpPpx0gtqGp28oXJmJQ-2" target="AfpPpx0gtqGp28oXJmJQ-3">
          <mxGeometry relative="1" as="geometry" />
        </mxCell>
        <mxCell id="AfpPpx0gtqGp28oXJmJQ-2" value="If we delete or restart the pod running MongoDB, we will lose all of the data in it!" style="rounded=0;whiteSpace=wrap;html=1;fillColor=#dae8fc;strokeColor=#6c8ebf;fontSize=17;" vertex="1" parent="AfpPpx0gtqGp28oXJmJQ-1">
          <mxGeometry x="630" y="170" width="440" height="60" as="geometry" />
        </mxCell>
        <mxCell id="AfpPpx0gtqGp28oXJmJQ-3" value="We will have a more in depth discussion on this later (and fix it)" style="rounded=0;whiteSpace=wrap;html=1;fillColor=#dae8fc;strokeColor=#6c8ebf;fontSize=17;" vertex="1" parent="AfpPpx0gtqGp28oXJmJQ-1">
          <mxGeometry x="630" y="280" width="440" height="60" as="geometry" />
        </mxCell>
      </root>
    </mxGraphModel>
  </diagram>
  <diagram name="03 - auth" id="GanEl1t_uSGGIdw0m06f">
    <mxGraphModel dx="715" dy="352" grid="1" gridSize="10" guides="1" tooltips="1" connect="1" arrows="1" fold="1" page="1" pageScale="1" pageWidth="1920" pageHeight="1200" math="0" shadow="0">
      <root>
        <mxCell id="6kkvw8EHueK7NCTaE9G8-0" />
        <mxCell id="6kkvw8EHueK7NCTaE9G8-1" parent="6kkvw8EHueK7NCTaE9G8-0" />
        <mxCell id="6kkvw8EHueK7NCTaE9G8-2" value="" style="strokeWidth=1;shadow=0;dashed=0;align=center;html=1;shape=mxgraph.mockup.containers.browserWindow;rSize=0;strokeColor=#666666;strokeColor2=#008cff;strokeColor3=#c4c4c4;mainText=,;recursiveResize=0;fontStyle=1" vertex="1" parent="6kkvw8EHueK7NCTaE9G8-1">
          <mxGeometry x="410" y="200" width="270" height="250" as="geometry" />
        </mxCell>
        <mxCell id="6kkvw8EHueK7NCTaE9G8-3" value="Page 1" style="strokeWidth=1;shadow=0;dashed=0;align=center;html=1;shape=mxgraph.mockup.containers.anchor;fontSize=17;fontColor=#666666;align=left;" vertex="1" parent="6kkvw8EHueK7NCTaE9G8-2">
          <mxGeometry x="60" y="12" width="110" height="26" as="geometry" />
        </mxCell>
        <mxCell id="6kkvw8EHueK7NCTaE9G8-4" value="" style="strokeWidth=1;shadow=0;dashed=0;align=center;html=1;shape=mxgraph.mockup.containers.anchor;rSize=0;fontSize=17;fontColor=#666666;align=left;" vertex="1" parent="6kkvw8EHueK7NCTaE9G8-2">
          <mxGeometry x="130" y="60" width="250" height="26" as="geometry" />
        </mxCell>
        <mxCell id="6kkvw8EHueK7NCTaE9G8-5" value="React App" style="rounded=0;whiteSpace=wrap;html=1;fontSize=22;fillColor=#ffe6cc;strokeColor=#d79b00;fontStyle=1" vertex="1" parent="6kkvw8EHueK7NCTaE9G8-2">
          <mxGeometry x="55" y="140" width="160" height="80" as="geometry" />
        </mxCell>
        <mxCell id="6kkvw8EHueK7NCTaE9G8-6" value="Auth Service" style="rounded=0;whiteSpace=wrap;html=1;fillColor=#f5f5f5;strokeColor=#666666;fontColor=#333333;fontStyle=1;fontSize=19;" vertex="1" parent="6kkvw8EHueK7NCTaE9G8-1">
          <mxGeometry x="820" y="205" width="420" height="35" as="geometry" />
        </mxCell>
        <mxCell id="6kkvw8EHueK7NCTaE9G8-7" value="" style="rounded=0;whiteSpace=wrap;html=1;fillColor=#f5f5f5;strokeColor=#666666;fontColor=#333333;fontStyle=1;fontSize=19;" vertex="1" parent="6kkvw8EHueK7NCTaE9G8-1">
          <mxGeometry x="820" y="240" width="420" height="230" as="geometry" />
        </mxCell>
        <mxCell id="6kkvw8EHueK7NCTaE9G8-10" value="" style="endArrow=classic;html=1;fontSize=15;" edge="1" parent="6kkvw8EHueK7NCTaE9G8-1">
          <mxGeometry width="50" height="50" relative="1" as="geometry">
            <mxPoint x="680" y="270" as="sourcePoint" />
            <mxPoint x="820" y="270" as="targetPoint" />
          </mxGeometry>
        </mxCell>
        <mxCell id="6kkvw8EHueK7NCTaE9G8-11" value="{ email, password }" style="rounded=0;whiteSpace=wrap;html=1;fontSize=15;fillColor=#dae8fc;strokeColor=#6c8ebf;" vertex="1" parent="6kkvw8EHueK7NCTaE9G8-1">
          <mxGeometry x="700" y="230" width="90" height="40" as="geometry" />
        </mxCell>
        <mxCell id="6kkvw8EHueK7NCTaE9G8-21" style="edgeStyle=orthogonalEdgeStyle;rounded=0;orthogonalLoop=1;jettySize=auto;html=1;exitX=0.5;exitY=1;exitDx=0;exitDy=0;entryX=0.5;entryY=0;entryDx=0;entryDy=0;fontSize=13;" edge="1" parent="6kkvw8EHueK7NCTaE9G8-1" source="6kkvw8EHueK7NCTaE9G8-17" target="6kkvw8EHueK7NCTaE9G8-20">
          <mxGeometry relative="1" as="geometry" />
        </mxCell>
        <mxCell id="6kkvw8EHueK7NCTaE9G8-31" style="edgeStyle=orthogonalEdgeStyle;rounded=0;orthogonalLoop=1;jettySize=auto;html=1;exitX=1;exitY=0.5;exitDx=0;exitDy=0;entryX=-0.008;entryY=0.134;entryDx=0;entryDy=0;entryPerimeter=0;fontSize=13;" edge="1" parent="6kkvw8EHueK7NCTaE9G8-1" source="6kkvw8EHueK7NCTaE9G8-17" target="6kkvw8EHueK7NCTaE9G8-30">
          <mxGeometry relative="1" as="geometry" />
        </mxCell>
        <mxCell id="6kkvw8EHueK7NCTaE9G8-17" value="Does a user with this email already exist? If so, respond with error" style="rounded=0;whiteSpace=wrap;html=1;fontSize=13;" vertex="1" parent="6kkvw8EHueK7NCTaE9G8-1">
          <mxGeometry x="830" y="250" width="280" height="40" as="geometry" />
        </mxCell>
        <mxCell id="6kkvw8EHueK7NCTaE9G8-19" value="&lt;b&gt;SIGNUP&lt;/b&gt;" style="rounded=0;whiteSpace=wrap;html=1;fontSize=15;fillColor=#dae8fc;strokeColor=#6c8ebf;" vertex="1" parent="6kkvw8EHueK7NCTaE9G8-1">
          <mxGeometry x="700" y="205" width="90" height="25" as="geometry" />
        </mxCell>
        <mxCell id="6kkvw8EHueK7NCTaE9G8-23" style="edgeStyle=orthogonalEdgeStyle;rounded=0;orthogonalLoop=1;jettySize=auto;html=1;exitX=0.5;exitY=1;exitDx=0;exitDy=0;entryX=0.5;entryY=0;entryDx=0;entryDy=0;fontSize=13;" edge="1" parent="6kkvw8EHueK7NCTaE9G8-1" source="6kkvw8EHueK7NCTaE9G8-20" target="6kkvw8EHueK7NCTaE9G8-22">
          <mxGeometry relative="1" as="geometry" />
        </mxCell>
        <mxCell id="6kkvw8EHueK7NCTaE9G8-20" value="Can&#39;t store passwords in plain text!&amp;nbsp; Hash the password the user entered" style="rounded=0;whiteSpace=wrap;html=1;fontSize=13;" vertex="1" parent="6kkvw8EHueK7NCTaE9G8-1">
          <mxGeometry x="830" y="305" width="280" height="40" as="geometry" />
        </mxCell>
        <mxCell id="6kkvw8EHueK7NCTaE9G8-32" style="edgeStyle=orthogonalEdgeStyle;rounded=0;orthogonalLoop=1;jettySize=auto;html=1;exitX=1;exitY=0.5;exitDx=0;exitDy=0;entryX=-0.022;entryY=0.864;entryDx=0;entryDy=0;entryPerimeter=0;fontSize=13;" edge="1" parent="6kkvw8EHueK7NCTaE9G8-1" source="6kkvw8EHueK7NCTaE9G8-22" target="6kkvw8EHueK7NCTaE9G8-30">
          <mxGeometry relative="1" as="geometry" />
        </mxCell>
        <mxCell id="6kkvw8EHueK7NCTaE9G8-22" value="Create a new User and save them to MongoDB" style="rounded=0;whiteSpace=wrap;html=1;fontSize=13;" vertex="1" parent="6kkvw8EHueK7NCTaE9G8-1">
          <mxGeometry x="830" y="360" width="280" height="40" as="geometry" />
        </mxCell>
        <mxCell id="6kkvw8EHueK7NCTaE9G8-24" style="edgeStyle=orthogonalEdgeStyle;rounded=0;orthogonalLoop=1;jettySize=auto;html=1;exitX=0.5;exitY=1;exitDx=0;exitDy=0;entryX=0.5;entryY=0;entryDx=0;entryDy=0;fontSize=13;" edge="1" parent="6kkvw8EHueK7NCTaE9G8-1" target="6kkvw8EHueK7NCTaE9G8-25">
          <mxGeometry relative="1" as="geometry">
            <mxPoint x="970" y="400" as="sourcePoint" />
          </mxGeometry>
        </mxCell>
        <mxCell id="6kkvw8EHueK7NCTaE9G8-34" style="edgeStyle=orthogonalEdgeStyle;rounded=0;orthogonalLoop=1;jettySize=auto;html=1;exitX=0;exitY=0.5;exitDx=0;exitDy=0;entryX=1.012;entryY=0.939;entryDx=0;entryDy=0;entryPerimeter=0;fontSize=13;" edge="1" parent="6kkvw8EHueK7NCTaE9G8-1" source="6kkvw8EHueK7NCTaE9G8-25" target="6kkvw8EHueK7NCTaE9G8-2">
          <mxGeometry relative="1" as="geometry" />
        </mxCell>
        <mxCell id="6kkvw8EHueK7NCTaE9G8-25" value="User is now considered to be logged in.&amp;nbsp; Send them a cookie/jwt/something" style="rounded=0;whiteSpace=wrap;html=1;fontSize=13;" vertex="1" parent="6kkvw8EHueK7NCTaE9G8-1">
          <mxGeometry x="830" y="415" width="280" height="40" as="geometry" />
        </mxCell>
        <mxCell id="6kkvw8EHueK7NCTaE9G8-26" value="" style="rounded=0;whiteSpace=wrap;html=1;fontSize=13;fillColor=#e1d5e7;strokeColor=#9673a6;" vertex="1" parent="6kkvw8EHueK7NCTaE9G8-1">
          <mxGeometry x="1290" y="205" width="150" height="265" as="geometry" />
        </mxCell>
        <mxCell id="6kkvw8EHueK7NCTaE9G8-27" value="&lt;span style=&quot;color: rgb(51 , 51 , 51) ; font-size: 19px&quot;&gt;MongoDB&lt;/span&gt;" style="rounded=0;whiteSpace=wrap;html=1;fontSize=13;fillColor=#e1d5e7;strokeColor=#9673a6;fontStyle=1" vertex="1" parent="6kkvw8EHueK7NCTaE9G8-1">
          <mxGeometry x="1290" y="205" width="150" height="35" as="geometry" />
        </mxCell>
        <mxCell id="6kkvw8EHueK7NCTaE9G8-28" value="User Collection" style="rounded=0;whiteSpace=wrap;html=1;fontSize=13;" vertex="1" parent="6kkvw8EHueK7NCTaE9G8-1">
          <mxGeometry x="1310" y="300" width="110" height="100" as="geometry" />
        </mxCell>
        <mxCell id="6kkvw8EHueK7NCTaE9G8-33" style="edgeStyle=orthogonalEdgeStyle;rounded=0;orthogonalLoop=1;jettySize=auto;html=1;exitX=1;exitY=0.5;exitDx=0;exitDy=0;entryX=0;entryY=0.25;entryDx=0;entryDy=0;fontSize=13;" edge="1" parent="6kkvw8EHueK7NCTaE9G8-1" source="6kkvw8EHueK7NCTaE9G8-30" target="6kkvw8EHueK7NCTaE9G8-28">
          <mxGeometry relative="1" as="geometry" />
        </mxCell>
        <mxCell id="6kkvw8EHueK7NCTaE9G8-30" value="Mongoose User Model" style="rounded=0;whiteSpace=wrap;html=1;fontSize=13;fillColor=#fff2cc;strokeColor=#d6b656;fontStyle=1" vertex="1" parent="6kkvw8EHueK7NCTaE9G8-1">
          <mxGeometry x="1150" y="250" width="80" height="150" as="geometry" />
        </mxCell>
        <mxCell id="6kkvw8EHueK7NCTaE9G8-35" value="&lt;b&gt;Response&lt;/b&gt;" style="rounded=0;whiteSpace=wrap;html=1;fontSize=15;fillColor=#dae8fc;strokeColor=#6c8ebf;" vertex="1" parent="6kkvw8EHueK7NCTaE9G8-1">
          <mxGeometry x="713" y="435" width="90" height="25" as="geometry" />
        </mxCell>
      </root>
    </mxGraphModel>
  </diagram>
  <diagram id="7MhJfgEWZlJ9l6-lOAeF" name="04 - mongoose">
    <mxGraphModel dx="601" dy="296" grid="1" gridSize="10" guides="1" tooltips="1" connect="1" arrows="1" fold="1" page="1" pageScale="1" pageWidth="1920" pageHeight="1200" math="0" shadow="0">
      <root>
        <mxCell id="uOOGHx2yZ9HFkhzBKnsO-0" />
        <mxCell id="uOOGHx2yZ9HFkhzBKnsO-1" parent="uOOGHx2yZ9HFkhzBKnsO-0" />
        <mxCell id="u9ScNwFZ7urygbcfSo5k-0" value="" style="rounded=0;whiteSpace=wrap;html=1;fontSize=13;fillColor=#e1d5e7;strokeColor=#9673a6;" vertex="1" parent="uOOGHx2yZ9HFkhzBKnsO-1">
          <mxGeometry x="590" y="260" width="240" height="130" as="geometry" />
        </mxCell>
        <mxCell id="u9ScNwFZ7urygbcfSo5k-1" value="&lt;span style=&quot;color: rgb(51 , 51 , 51) ; font-size: 19px&quot;&gt;MongoDB&lt;/span&gt;" style="rounded=0;whiteSpace=wrap;html=1;fontSize=13;fillColor=#e1d5e7;strokeColor=#9673a6;fontStyle=1" vertex="1" parent="uOOGHx2yZ9HFkhzBKnsO-1">
          <mxGeometry x="590" y="225" width="240" height="35" as="geometry" />
        </mxCell>
        <mxCell id="u9ScNwFZ7urygbcfSo5k-2" value="User Collection" style="rounded=0;whiteSpace=wrap;html=1;fontSize=13;fillColor=#f5f5f5;strokeColor=#666666;fontColor=#333333;fontStyle=1" vertex="1" parent="uOOGHx2yZ9HFkhzBKnsO-1">
          <mxGeometry x="600" y="275" width="220" height="25" as="geometry" />
        </mxCell>
        <mxCell id="u9ScNwFZ7urygbcfSo5k-4" value="Mongoose User Model" style="rounded=0;whiteSpace=wrap;html=1;fontSize=13;fillColor=#fff2cc;strokeColor=#d6b656;fontStyle=1" vertex="1" parent="uOOGHx2yZ9HFkhzBKnsO-1">
          <mxGeometry x="446" y="310" width="120" height="60" as="geometry" />
        </mxCell>
        <mxCell id="u9ScNwFZ7urygbcfSo5k-5" value="" style="rounded=0;whiteSpace=wrap;html=1;fontSize=13;fillColor=#f5f5f5;strokeColor=#666666;fontColor=#333333;" vertex="1" parent="uOOGHx2yZ9HFkhzBKnsO-1">
          <mxGeometry x="600" y="300" width="220" height="80" as="geometry" />
        </mxCell>
        <mxCell id="u9ScNwFZ7urygbcfSo5k-6" value="User #1" style="rounded=0;whiteSpace=wrap;html=1;fontSize=13;fontStyle=2;fillColor=#d5e8d4;strokeColor=#82b366;" vertex="1" parent="uOOGHx2yZ9HFkhzBKnsO-1">
          <mxGeometry x="610" y="310" width="90" height="25" as="geometry" />
        </mxCell>
        <mxCell id="u9ScNwFZ7urygbcfSo5k-7" value="User #2" style="rounded=0;whiteSpace=wrap;html=1;fontSize=13;fontStyle=2;fillColor=#d5e8d4;strokeColor=#82b366;" vertex="1" parent="uOOGHx2yZ9HFkhzBKnsO-1">
          <mxGeometry x="720" y="310" width="90" height="25" as="geometry" />
        </mxCell>
        <mxCell id="u9ScNwFZ7urygbcfSo5k-8" value="User #3" style="rounded=0;whiteSpace=wrap;html=1;fontSize=13;fontStyle=2;fillColor=#d5e8d4;strokeColor=#82b366;" vertex="1" parent="uOOGHx2yZ9HFkhzBKnsO-1">
          <mxGeometry x="610" y="344" width="90" height="25" as="geometry" />
        </mxCell>
        <mxCell id="u9ScNwFZ7urygbcfSo5k-9" value="User #4" style="rounded=0;whiteSpace=wrap;html=1;fontSize=13;fontStyle=2;fillColor=#d5e8d4;strokeColor=#82b366;" vertex="1" parent="uOOGHx2yZ9HFkhzBKnsO-1">
          <mxGeometry x="720" y="344" width="90" height="25" as="geometry" />
        </mxCell>
        <mxCell id="u9ScNwFZ7urygbcfSo5k-10" value="Mongoose User Document" style="rounded=0;whiteSpace=wrap;html=1;fontSize=13;fillColor=#fff2cc;strokeColor=#d6b656;fontStyle=1" vertex="1" parent="uOOGHx2yZ9HFkhzBKnsO-1">
          <mxGeometry x="843" y="292.5" width="120" height="60" as="geometry" />
        </mxCell>
        <mxCell id="u9ScNwFZ7urygbcfSo5k-11" value="" style="shape=curlyBracket;whiteSpace=wrap;html=1;rounded=1;fontSize=13;rotation=-180;" vertex="1" parent="uOOGHx2yZ9HFkhzBKnsO-1">
          <mxGeometry x="814" y="310" width="30" height="25" as="geometry" />
        </mxCell>
        <mxCell id="u9ScNwFZ7urygbcfSo5k-12" value="Represents one single user" style="text;html=1;strokeColor=none;fillColor=none;align=center;verticalAlign=middle;whiteSpace=wrap;rounded=0;fontSize=13;fontStyle=2" vertex="1" parent="uOOGHx2yZ9HFkhzBKnsO-1">
          <mxGeometry x="854.5" y="352.5" width="97" height="30" as="geometry" />
        </mxCell>
        <mxCell id="u9ScNwFZ7urygbcfSo5k-13" value="" style="shape=curlyBracket;whiteSpace=wrap;html=1;rounded=1;fontSize=13;rotation=0;" vertex="1" parent="uOOGHx2yZ9HFkhzBKnsO-1">
          <mxGeometry x="566" y="300" width="30" height="80" as="geometry" />
        </mxCell>
        <mxCell id="u9ScNwFZ7urygbcfSo5k-14" value="Represents the entire collection of users" style="text;html=1;strokeColor=none;fillColor=none;align=center;verticalAlign=middle;whiteSpace=wrap;rounded=0;fontSize=13;fontStyle=2" vertex="1" parent="uOOGHx2yZ9HFkhzBKnsO-1">
          <mxGeometry x="457.5" y="377" width="97" height="30" as="geometry" />
        </mxCell>
      </root>
    </mxGraphModel>
  </diagram>
  <diagram id="24B--XxwFlk7WRy3bTVb" name="05 - m">
    <mxGraphModel dx="601" dy="296" grid="1" gridSize="10" guides="1" tooltips="1" connect="1" arrows="1" fold="1" page="1" pageScale="1" pageWidth="1920" pageHeight="1200" math="0" shadow="0">
      <root>
        <mxCell id="2i62QDjw80bGlP2GjIEc-0" />
        <mxCell id="2i62QDjw80bGlP2GjIEc-1" parent="2i62QDjw80bGlP2GjIEc-0" />
        <mxCell id="PXCfLC5JLTR5Eov9wG-h-0" value="new User({ email: &#39;test@test.com&#39;, password: &#39;lk325kj2&#39; })" style="rounded=0;whiteSpace=wrap;html=1;fontSize=13;fillColor=#dae8fc;strokeColor=#6c8ebf;fontStyle=1" vertex="1" parent="2i62QDjw80bGlP2GjIEc-1">
          <mxGeometry x="530" y="290" width="430" height="50" as="geometry" />
        </mxCell>
        <mxCell id="PXCfLC5JLTR5Eov9wG-h-1" value="Creating a new User Document" style="text;html=1;strokeColor=none;fillColor=none;align=center;verticalAlign=middle;whiteSpace=wrap;rounded=0;fontSize=13;fontStyle=2" vertex="1" parent="2i62QDjw80bGlP2GjIEc-1">
          <mxGeometry x="657.5" y="260" width="175" height="20" as="geometry" />
        </mxCell>
        <mxCell id="duGneUoO852O0gYtUuxt-0" value="Issue #1 with TS + Mongoose" style="text;html=1;strokeColor=none;fillColor=none;align=center;verticalAlign=middle;whiteSpace=wrap;rounded=0;fontSize=13;fontStyle=5" vertex="1" parent="2i62QDjw80bGlP2GjIEc-1">
          <mxGeometry x="490" y="220" width="230" height="20" as="geometry" />
        </mxCell>
      </root>
    </mxGraphModel>
  </diagram>
  <diagram name="06 - ts" id="kTC30R4S65JpMzQZoJH7">
    <mxGraphModel dx="601" dy="296" grid="1" gridSize="10" guides="1" tooltips="1" connect="1" arrows="1" fold="1" page="1" pageScale="1" pageWidth="1920" pageHeight="1200" math="0" shadow="0">
      <root>
        <mxCell id="NRrTkXQd9ZWY_lhJ8x_S-0" />
        <mxCell id="NRrTkXQd9ZWY_lhJ8x_S-1" parent="NRrTkXQd9ZWY_lhJ8x_S-0" />
        <mxCell id="NRrTkXQd9ZWY_lhJ8x_S-2" value="new User({ email: &#39;test@test.com&#39;, password: &#39;lk325kj2&#39; })" style="rounded=0;whiteSpace=wrap;html=1;fontSize=13;fillColor=#dae8fc;strokeColor=#6c8ebf;fontStyle=1" vertex="1" parent="NRrTkXQd9ZWY_lhJ8x_S-1">
          <mxGeometry x="530" y="290" width="430" height="50" as="geometry" />
        </mxCell>
        <mxCell id="NRrTkXQd9ZWY_lhJ8x_S-3" value="Creating a new User Document" style="text;html=1;strokeColor=none;fillColor=none;align=center;verticalAlign=middle;whiteSpace=wrap;rounded=0;fontSize=13;fontStyle=2" vertex="1" parent="NRrTkXQd9ZWY_lhJ8x_S-1">
          <mxGeometry x="657.5" y="260" width="175" height="20" as="geometry" />
        </mxCell>
        <mxCell id="NRrTkXQd9ZWY_lhJ8x_S-4" value="" style="shape=curlyBracket;whiteSpace=wrap;html=1;rounded=1;fontSize=13;rotation=-90;" vertex="1" parent="NRrTkXQd9ZWY_lhJ8x_S-1">
          <mxGeometry x="757.5" y="202.5" width="35" height="290" as="geometry" />
        </mxCell>
        <mxCell id="NRrTkXQd9ZWY_lhJ8x_S-5" value="Typescript wants to make sure we are providing the correct properties - Mongoose does not make this easy!" style="text;html=1;strokeColor=none;fillColor=none;align=center;verticalAlign=middle;whiteSpace=wrap;rounded=0;fontSize=13;fontStyle=0" vertex="1" parent="NRrTkXQd9ZWY_lhJ8x_S-1">
          <mxGeometry x="653.75" y="370" width="242.5" height="30" as="geometry" />
        </mxCell>
        <mxCell id="3DifghKtDI2gipp7pktN-0" value="Issue #1 with TS + Mongoose" style="text;html=1;strokeColor=none;fillColor=none;align=center;verticalAlign=middle;whiteSpace=wrap;rounded=0;fontSize=13;fontStyle=5" vertex="1" parent="NRrTkXQd9ZWY_lhJ8x_S-1">
          <mxGeometry x="490" y="220" width="230" height="20" as="geometry" />
        </mxCell>
      </root>
    </mxGraphModel>
  </diagram>
  <diagram name="07 - ts" id="zD9yp86iYdRzvlGDVtm4">
    <mxGraphModel dx="601" dy="296" grid="1" gridSize="10" guides="1" tooltips="1" connect="1" arrows="1" fold="1" page="1" pageScale="1" pageWidth="1920" pageHeight="1200" math="0" shadow="0">
      <root>
        <mxCell id="6kmRMLjHm2MGL4raaBMh-0" />
        <mxCell id="6kmRMLjHm2MGL4raaBMh-1" parent="6kmRMLjHm2MGL4raaBMh-0" />
        <mxCell id="Sz4TFe-vi2OUuPkls2Qc-1" style="edgeStyle=orthogonalEdgeStyle;rounded=0;orthogonalLoop=1;jettySize=auto;html=1;exitX=0.5;exitY=1;exitDx=0;exitDy=0;entryX=0.5;entryY=0;entryDx=0;entryDy=0;fontSize=13;" edge="1" parent="6kmRMLjHm2MGL4raaBMh-1" source="6kmRMLjHm2MGL4raaBMh-2" target="qA2I0-mN6NvgQe7Fw1Pr-2">
          <mxGeometry relative="1" as="geometry" />
        </mxCell>
        <mxCell id="6kmRMLjHm2MGL4raaBMh-2" value="const user = new User({ email: &#39;test@test.com&#39;, password: &#39;lk325kj2&#39; })" style="rounded=0;whiteSpace=wrap;html=1;fontSize=13;fillColor=#dae8fc;strokeColor=#6c8ebf;fontStyle=1" vertex="1" parent="6kmRMLjHm2MGL4raaBMh-1">
          <mxGeometry x="530" y="290" width="500" height="50" as="geometry" />
        </mxCell>
        <mxCell id="qA2I0-mN6NvgQe7Fw1Pr-0" value="Issue #2 with TS + Mongoose" style="text;html=1;strokeColor=none;fillColor=none;align=center;verticalAlign=middle;whiteSpace=wrap;rounded=0;fontSize=13;fontStyle=5" vertex="1" parent="6kmRMLjHm2MGL4raaBMh-1">
          <mxGeometry x="470" y="250" width="230" height="20" as="geometry" />
        </mxCell>
        <mxCell id="qA2I0-mN6NvgQe7Fw1Pr-2" value="console.log(user); // { email: &#39;..&#39;, password: &#39;..&#39;, createdAt: &#39;..&#39;, updatedAt: &#39;..&#39; }" style="rounded=0;whiteSpace=wrap;html=1;fontSize=13;fillColor=#dae8fc;strokeColor=#6c8ebf;fontStyle=1" vertex="1" parent="6kmRMLjHm2MGL4raaBMh-1">
          <mxGeometry x="530" y="360" width="500" height="50" as="geometry" />
        </mxCell>
        <mxCell id="Sz4TFe-vi2OUuPkls2Qc-0" value="The properties that we pass to the User constructor don&#39;t necessarily match up with the properties available on a user" style="text;html=1;strokeColor=none;fillColor=none;align=center;verticalAlign=middle;whiteSpace=wrap;rounded=0;fontSize=13;fontStyle=0" vertex="1" parent="6kmRMLjHm2MGL4raaBMh-1">
          <mxGeometry x="658.75" y="420" width="242.5" height="30" as="geometry" />
        </mxCell>
      </root>
    </mxGraphModel>
  </diagram>
  <diagram id="f60xrSET4LPWzVbzE7T1" name="08 - hashing">
    <mxGraphModel dx="858" dy="422" grid="1" gridSize="10" guides="1" tooltips="1" connect="1" arrows="1" fold="1" page="1" pageScale="1" pageWidth="1920" pageHeight="1200" math="0" shadow="0">
      <root>
        <mxCell id="JoL5sScF6yHnG0T5Fap--0" />
        <mxCell id="JoL5sScF6yHnG0T5Fap--1" parent="JoL5sScF6yHnG0T5Fap--0" />
        <mxCell id="MuVdxE0BAxxXLCZmm-bu-4" value="Auth Service" style="rounded=0;whiteSpace=wrap;html=1;fillColor=#f5f5f5;strokeColor=#666666;fontColor=#333333;fontStyle=1;fontSize=19;" vertex="1" parent="JoL5sScF6yHnG0T5Fap--1">
          <mxGeometry x="540" y="215" width="200" height="35" as="geometry" />
        </mxCell>
        <mxCell id="MuVdxE0BAxxXLCZmm-bu-5" value="" style="rounded=0;whiteSpace=wrap;html=1;fillColor=#f5f5f5;strokeColor=#666666;fontColor=#333333;fontStyle=1;fontSize=19;" vertex="1" parent="JoL5sScF6yHnG0T5Fap--1">
          <mxGeometry x="540" y="250" width="200" height="190" as="geometry" />
        </mxCell>
        <mxCell id="MuVdxE0BAxxXLCZmm-bu-6" value="" style="endArrow=classic;html=1;fontSize=15;" edge="1" parent="JoL5sScF6yHnG0T5Fap--1">
          <mxGeometry width="50" height="50" relative="1" as="geometry">
            <mxPoint x="330" y="335" as="sourcePoint" />
            <mxPoint x="540" y="335" as="targetPoint" />
          </mxGeometry>
        </mxCell>
        <mxCell id="MuVdxE0BAxxXLCZmm-bu-7" value="{ email: &#39;test@test.com&#39;, password: &#39;wordpass&#39;" style="rounded=0;whiteSpace=wrap;html=1;fontSize=15;fillColor=#dae8fc;strokeColor=#6c8ebf;" vertex="1" parent="JoL5sScF6yHnG0T5Fap--1">
          <mxGeometry x="340" y="295" width="180" height="40" as="geometry" />
        </mxCell>
        <mxCell id="MuVdxE0BAxxXLCZmm-bu-11" value="&lt;b&gt;SIGNUP&lt;/b&gt;" style="rounded=0;whiteSpace=wrap;html=1;fontSize=15;fillColor=#dae8fc;strokeColor=#6c8ebf;" vertex="1" parent="JoL5sScF6yHnG0T5Fap--1">
          <mxGeometry x="340" y="270" width="180" height="25" as="geometry" />
        </mxCell>
        <mxCell id="MuVdxE0BAxxXLCZmm-bu-19" value="" style="rounded=0;whiteSpace=wrap;html=1;fontSize=13;fillColor=#e1d5e7;strokeColor=#9673a6;" vertex="1" parent="JoL5sScF6yHnG0T5Fap--1">
          <mxGeometry x="800" y="210" width="210" height="230" as="geometry" />
        </mxCell>
        <mxCell id="MuVdxE0BAxxXLCZmm-bu-20" value="&lt;span style=&quot;color: rgb(51 , 51 , 51) ; font-size: 19px&quot;&gt;MongoDB&lt;/span&gt;" style="rounded=0;whiteSpace=wrap;html=1;fontSize=13;fillColor=#e1d5e7;strokeColor=#9673a6;fontStyle=1" vertex="1" parent="JoL5sScF6yHnG0T5Fap--1">
          <mxGeometry x="800" y="210" width="210" height="35" as="geometry" />
        </mxCell>
        <mxCell id="MuVdxE0BAxxXLCZmm-bu-21" value="" style="rounded=0;whiteSpace=wrap;html=1;fontSize=13;" vertex="1" parent="JoL5sScF6yHnG0T5Fap--1">
          <mxGeometry x="820" y="305" width="170" height="100" as="geometry" />
        </mxCell>
        <mxCell id="MuVdxE0BAxxXLCZmm-bu-22" style="edgeStyle=orthogonalEdgeStyle;rounded=0;orthogonalLoop=1;jettySize=auto;html=1;exitX=1;exitY=0.5;exitDx=0;exitDy=0;entryX=0;entryY=0.25;entryDx=0;entryDy=0;fontSize=13;" edge="1" parent="JoL5sScF6yHnG0T5Fap--1" target="MuVdxE0BAxxXLCZmm-bu-21">
          <mxGeometry relative="1" as="geometry">
            <mxPoint x="740" y="330" as="sourcePoint" />
          </mxGeometry>
        </mxCell>
        <mxCell id="MuVdxE0BAxxXLCZmm-bu-26" value="React App" style="rounded=0;whiteSpace=wrap;html=1;fontSize=22;fillColor=#ffe6cc;strokeColor=#d79b00;fontStyle=1" vertex="1" parent="JoL5sScF6yHnG0T5Fap--1">
          <mxGeometry x="170" y="315" width="160" height="80" as="geometry" />
        </mxCell>
        <mxCell id="MuVdxE0BAxxXLCZmm-bu-27" value="Create a new user with email of &#39;test@test.com&#39; and password &#39;wordpass&#39;" style="rounded=0;whiteSpace=wrap;html=1;fontSize=13;" vertex="1" parent="JoL5sScF6yHnG0T5Fap--1">
          <mxGeometry x="550" y="270" width="180" height="110" as="geometry" />
        </mxCell>
        <mxCell id="MuVdxE0BAxxXLCZmm-bu-28" value="{ email: &#39;test@test.com&#39;, password: &#39;wordpass&#39; }" style="rounded=0;whiteSpace=wrap;html=1;fontSize=12;fillColor=#d5e8d4;strokeColor=#82b366;" vertex="1" parent="JoL5sScF6yHnG0T5Fap--1">
          <mxGeometry x="835" y="325" width="140" height="40" as="geometry" />
        </mxCell>
        <mxCell id="MuVdxE0BAxxXLCZmm-bu-29" value="User Collection" style="rounded=0;whiteSpace=wrap;html=1;fontSize=13;" vertex="1" parent="JoL5sScF6yHnG0T5Fap--1">
          <mxGeometry x="820" y="270" width="170" height="35" as="geometry" />
        </mxCell>
      </root>
    </mxGraphModel>
  </diagram>
</mxfile>
